<?xml version="1.0" encoding="utf-8"?>
<!-- Generator: Adobe Illustrator 20.1.0, SVG Export Plug-In . SVG Version: 6.00 Build 0)  -->
<svg version="1.1" id="Слой_1" xmlns="http://www.w3.org/2000/svg" xmlns:xlink="http://www.w3.org/1999/xlink" x="0px" y="0px"
	 viewBox="0 0 40 40" style="enable-background:new 0 0 40 40;" xml:space="preserve">
<style type="text/css">
	.st0{fill:#0E0F0F;}
</style>
<path class="st0" d="M11.9,0.5c0.3,0,0.7,0.2,0.9,0.4L31,19.1c0.2,0.2,0.4,0.6,0.4,0.9s-0.2,0.7-0.4,0.9L12.8,39.1
	c-0.2,0.2-0.6,0.4-0.9,0.4s-0.7-0.2-0.9-0.4l-2-1.9c-0.2-0.2-0.4-0.6-0.4-0.9s0.2-0.7,0.4-0.9L24.4,20L9,4.6C8.8,4.4,8.6,4,8.6,3.7
	C8.6,3.4,8.8,3,9,2.8l1.9-2C11.2,0.7,11.5,0.5,11.9,0.5L11.9,0.5z"/>
</svg>
