<?xml version="1.0" encoding="utf-8"?>
<!-- Generator: Adobe Illustrator 20.1.0, SVG Export Plug-In . SVG Version: 6.00 Build 0)  -->
<svg version="1.1" id="Слой_1" xmlns="http://www.w3.org/2000/svg" xmlns:xlink="http://www.w3.org/1999/xlink" x="0px" y="0px"
	 viewBox="0 0 40 40" style="enable-background:new 0 0 40 40;" xml:space="preserve">
<style type="text/css">
	.st0{fill:#0E0F0F;}
</style>
<path class="st0" d="M28.1,39.5c-0.3,0-0.7-0.2-0.9-0.4L9,20.9c-0.2-0.2-0.4-0.6-0.4-0.9c0-0.3,0.2-0.7,0.4-0.9L27.2,0.9
	c0.2-0.2,0.6-0.4,0.9-0.4c0.3,0,0.7,0.2,0.9,0.4l2,1.9c0.2,0.2,0.4,0.6,0.4,0.9c0,0.3-0.2,0.7-0.4,0.9L15.6,20L31,35.4
	c0.2,0.2,0.4,0.6,0.4,0.9c0,0.3-0.2,0.7-0.4,0.9l-1.9,2C28.8,39.3,28.5,39.5,28.1,39.5L28.1,39.5z"/>
</svg>
